<svg width="377" height="143" viewBox="0 0 377 143" fill="none" xmlns="http://www.w3.org/2000/svg">
<path d="M190.169 14.8834H175.481C174.751 14.8659 174.025 14.9992 173.348 15.275C172.671 15.5509 172.059 15.9634 171.549 16.4867C171.039 17.01 170.642 17.6329 170.384 18.3165C170.125 19.0001 170.011 19.7296 170.047 20.4594V54.4204C170.018 55.1382 170.139 55.8542 170.403 56.5224C170.666 57.1906 171.067 57.7962 171.579 58.3004C172.091 58.8046 172.702 59.1962 173.374 59.45C174.046 59.7038 174.764 59.8142 175.481 59.7741H190.169C203.26 59.7741 213.321 50.6627 213.321 37.2682C213.321 23.8737 203.26 14.8834 190.169 14.8834ZM190.169 49.2283H180.916V25.2879H190.169C197.624 25.2879 202.614 29.6921 202.614 37.147C202.614 44.6018 197.604 49.2485 190.169 49.2485V49.2283ZM242.03 14.4996C239.009 14.4282 236.005 14.9686 233.199 16.088C230.393 17.2075 227.842 18.8829 225.7 21.0137C223.558 23.1444 221.869 25.6864 220.735 28.4867C219.6 31.287 219.044 34.2878 219.099 37.3086C219.021 40.3347 219.561 43.345 220.688 46.1547C221.814 48.9645 223.502 51.5145 225.65 53.6484C227.797 55.7823 230.357 57.455 233.174 58.5639C235.99 59.6729 239.004 60.1947 242.03 60.0974C245.054 60.1465 248.058 59.587 250.862 58.452C253.667 57.3171 256.214 55.6299 258.353 53.4908C260.492 51.3516 262.179 48.8042 263.314 46C264.449 43.1958 265.009 40.192 264.96 37.1672C265.019 34.1528 264.464 31.1579 263.329 28.3648C262.194 25.5717 260.502 23.0388 258.357 20.9202C256.212 18.8016 253.658 17.1416 250.851 16.0413C248.044 14.9409 245.043 14.4233 242.03 14.5198V14.4996ZM242.03 49.8747C240.382 49.8901 238.749 49.5696 237.23 48.9327C235.711 48.2958 234.337 47.356 233.193 46.1705C232.049 44.985 231.159 43.5789 230.577 42.0378C229.995 40.4968 229.733 38.8533 229.807 37.2076C229.807 33.9659 231.095 30.857 233.387 28.5648C235.679 26.2726 238.788 24.9849 242.03 24.9849C245.271 24.9849 248.38 26.2726 250.672 28.5648C252.965 30.857 254.252 33.9659 254.252 37.2076C254.252 44.5412 249.404 49.8949 242.03 49.8949V49.8747ZM292.314 14.8632H277.627C276.896 14.8457 276.17 14.979 275.493 15.2548C274.817 15.5307 274.204 15.9432 273.694 16.4665C273.184 16.9898 272.787 17.6127 272.529 18.2963C272.271 18.9798 272.156 19.7094 272.192 20.4392V54.4204C272.163 55.1382 272.284 55.8542 272.548 56.5224C272.812 57.1906 273.213 57.7962 273.724 58.3004C274.236 58.8046 274.848 59.1962 275.52 59.45C276.192 59.7038 276.91 59.8142 277.627 59.7741H292.314C305.406 59.7741 315.467 50.6627 315.467 37.2682C315.467 23.8737 305.406 14.8834 292.314 14.8834V14.8632ZM292.314 49.208H283.062V25.2879H292.314C299.769 25.2879 304.759 29.6921 304.759 37.147C304.759 44.6018 299.749 49.2485 292.314 49.2485V49.208ZM344.175 14.4794C341.156 14.4081 338.154 14.9478 335.349 16.066C332.544 17.1843 329.995 18.8579 327.853 20.9865C325.711 23.115 324.022 25.6546 322.886 28.4525C321.751 31.2504 321.192 34.249 321.245 37.2682C321.166 40.2943 321.707 43.3046 322.833 46.1143C323.959 48.9241 325.648 51.4741 327.795 53.608C329.942 55.7419 332.503 57.4146 335.319 58.5235C338.136 59.6325 341.15 60.1543 344.175 60.057C347.2 60.1061 350.204 59.5466 353.008 58.4116C355.812 57.2767 358.36 55.5895 360.499 53.4504C362.638 51.3112 364.325 48.7638 365.46 45.9596C366.595 43.1554 367.154 40.1516 367.105 37.1268C367.159 34.1158 366.6 31.1253 365.462 28.3369C364.325 25.5486 362.632 23.0205 360.488 20.9063C358.343 18.792 355.792 17.1357 352.987 16.0378C350.183 14.94 347.185 14.4235 344.175 14.5198V14.4794ZM344.175 49.8545C342.528 49.8699 340.895 49.5494 339.375 48.9125C337.856 48.2757 336.483 47.3358 335.339 46.1503C334.195 44.9648 333.305 43.5587 332.722 42.0176C332.14 40.4766 331.878 38.8331 331.952 37.1874C331.952 33.9457 333.24 30.8368 335.532 28.5446C337.825 26.2524 340.933 24.9647 344.175 24.9647C347.417 24.9647 350.526 26.2524 352.818 28.5446C355.11 30.8368 356.398 33.9457 356.398 37.1874C356.398 44.5412 351.549 49.8949 344.175 49.8949V49.8545Z" fill="black"/>
<path d="M193.725 83.3298H175.542C174.83 83.3056 174.121 83.431 173.461 83.698C172.8 83.965 172.203 84.3676 171.708 84.8798C171.213 85.392 170.831 86.0024 170.587 86.6716C170.342 87.3407 170.241 88.0537 170.29 88.7644V123.109C170.263 123.832 170.388 124.552 170.656 125.223C170.925 125.894 171.331 126.501 171.849 127.006C172.367 127.51 172.984 127.901 173.662 128.152C174.34 128.403 175.063 128.509 175.785 128.463C176.498 128.501 177.211 128.388 177.878 128.133C178.544 127.877 179.15 127.484 179.655 126.979C180.159 126.474 180.552 125.869 180.808 125.202C181.064 124.535 181.176 123.822 181.139 123.109V115.028H193.725C195.843 115.132 197.96 114.792 199.938 114.028C201.917 113.265 203.714 112.096 205.213 110.597C206.713 109.097 207.882 107.3 208.645 105.322C209.408 103.343 209.749 101.226 209.645 99.1082C209.744 96.9977 209.399 94.8898 208.633 92.9209C207.866 90.9521 206.694 89.1662 205.194 87.6788C203.693 86.1915 201.897 85.0358 199.921 84.2867C197.945 83.5375 195.834 83.2115 193.725 83.3298ZM193.725 104.886H181.139V93.5323H193.725C194.464 93.5186 195.198 93.6599 195.879 93.947C196.56 94.2341 197.173 94.6607 197.68 95.1993C198.186 95.7379 198.574 96.3766 198.818 97.0742C199.063 97.7718 199.158 98.5129 199.099 99.2497C199.162 99.9853 199.069 100.726 198.825 101.423C198.581 102.12 198.193 102.758 197.685 103.294C197.178 103.83 196.563 104.253 195.88 104.534C195.197 104.816 194.463 104.949 193.725 104.927V104.886Z" fill="black"/>
<path d="M223.546 82.9667C222.816 82.9273 222.085 83.0398 221.4 83.2971C220.715 83.5544 220.091 83.9509 219.567 84.4615C219.043 84.9722 218.63 85.586 218.356 86.2641C218.081 86.9422 217.95 87.6699 217.97 88.4012V123.11C217.97 124.589 218.558 126.007 219.603 127.053C220.649 128.098 222.067 128.686 223.546 128.686C225.025 128.686 226.443 128.098 227.489 127.053C228.535 126.007 229.122 124.589 229.122 123.11V88.381C229.14 87.6513 229.007 86.9258 228.73 86.2502C228.454 85.5745 228.042 84.9632 227.518 84.4547C226.994 83.9462 226.371 83.5516 225.688 83.2955C225.004 83.0394 224.275 82.9274 223.546 82.9667Z" fill="black"/>
<path d="M274.456 117.837H251.95L274.173 97.7958C277.365 94.9674 278.658 92.6643 278.658 89.7147V89.1692C278.658 85.4721 276.416 83.3104 272.355 83.3104H243.99C243.284 83.2703 242.576 83.3786 241.914 83.6283C241.252 83.878 240.649 84.2636 240.145 84.7603C239.641 85.257 239.246 85.8538 238.986 86.5122C238.726 87.1706 238.607 87.8761 238.637 88.5833C238.606 89.2785 238.726 89.9721 238.989 90.6162C239.253 91.2603 239.653 91.8396 240.162 92.3141C240.671 92.7885 241.277 93.1468 241.938 93.3643C242.599 93.5817 243.299 93.653 243.99 93.5734H264.82L243.344 113.009C239.142 116.766 238.132 119.069 238.132 121.756V122.261C238.085 123.075 238.216 123.889 238.518 124.646C238.819 125.402 239.283 126.084 239.876 126.643C240.469 127.201 241.177 127.623 241.951 127.878C242.725 128.133 243.545 128.216 244.354 128.12H274.456C275.171 128.182 275.89 128.089 276.566 127.85C277.242 127.61 277.859 127.229 278.376 126.732C278.892 126.234 279.296 125.632 279.561 124.966C279.826 124.299 279.945 123.584 279.911 122.868C279.943 122.161 279.821 121.457 279.552 120.803C279.283 120.149 278.874 119.562 278.354 119.083C277.835 118.603 277.217 118.244 276.543 118.028C275.87 117.813 275.158 117.748 274.456 117.837Z" fill="black"/>
<path d="M321.551 117.837H299.045L321.268 97.7958C324.46 94.9674 325.753 92.6643 325.753 89.7147V89.1692C325.753 85.4721 323.511 83.3104 319.45 83.3104H291.085C290.378 83.2703 289.671 83.3786 289.009 83.6283C288.347 83.878 287.744 84.2636 287.24 84.7603C286.735 85.257 286.341 85.8538 286.081 86.5122C285.821 87.1706 285.702 87.8761 285.731 88.5833C285.701 89.2785 285.821 89.9721 286.084 90.6162C286.347 91.2603 286.747 91.8396 287.256 92.3141C287.766 92.7885 288.371 93.1468 289.033 93.3643C289.694 93.5817 290.394 93.653 291.085 93.5734H311.914L290.439 113.009C286.236 116.766 285.226 119.069 285.226 121.756V122.261C285.179 123.075 285.311 123.889 285.613 124.646C285.914 125.402 286.377 126.084 286.971 126.643C287.564 127.201 288.272 127.623 289.046 127.878C289.819 128.133 290.64 128.216 291.449 128.12H321.551C322.254 128.166 322.959 128.064 323.619 127.82C324.28 127.576 324.882 127.196 325.387 126.705C325.892 126.213 326.288 125.622 326.549 124.968C326.811 124.313 326.932 123.612 326.905 122.908C326.941 122.208 326.825 121.508 326.564 120.858C326.304 120.207 325.906 119.62 325.397 119.138C324.888 118.656 324.281 118.29 323.617 118.066C322.953 117.841 322.248 117.763 321.551 117.837Z" fill="black"/>
<path d="M375.957 120.504L361.209 88.3811C360.683 86.8707 359.692 85.5659 358.378 84.6547C357.064 83.7434 355.494 83.2727 353.895 83.3102H353.31C351.688 83.2485 350.09 83.7075 348.748 84.62C347.407 85.5325 346.393 86.8505 345.855 88.3811L331.107 120.504C329.652 123.696 330.662 126.564 333.571 127.595C334.174 127.892 334.832 128.06 335.504 128.089C336.175 128.117 336.845 128.005 337.47 127.76C338.096 127.515 338.664 127.141 339.137 126.664C339.61 126.187 339.978 125.616 340.218 124.989L343.552 117.978C346.819 119.01 350.227 119.521 353.653 119.493C356.949 119.56 360.232 119.047 363.35 117.978L366.542 124.928C366.83 125.549 367.238 126.107 367.742 126.57C368.247 127.033 368.838 127.391 369.481 127.625C370.124 127.859 370.808 127.963 371.492 127.931C372.175 127.9 372.846 127.734 373.465 127.442C374.085 127.15 374.64 126.739 375.1 126.232C375.56 125.725 375.915 125.132 376.144 124.487C376.374 123.842 376.474 123.158 376.438 122.474C376.403 121.791 376.232 121.121 375.937 120.504H375.957ZM353.734 109.877C351.561 109.89 349.395 109.625 347.289 109.089L353.592 94.947L359.876 109.089C357.853 109.628 355.767 109.893 353.673 109.877H353.734Z" fill="black"/>
<path d="M62.1774 2.54662L62.1774 2.56682L63.7403 2.56682C104.133 2.56682 134.908 30.2317 134.908 71.3703C134.908 112.529 104.152 140.861 63.7403 140.861L17.5768 140.861C13.2432 140.861 9.37355 139.456 6.60284 136.89C3.84999 134.341 2.06837 130.544 2.06837 125.514L2.06837 18.5803L2.06837 18.5426L2.06655 18.5049C1.96587 16.4228 2.29379 14.3423 3.02998 12.3922C3.76617 10.442 4.89494 8.66382 6.34639 7.16772C7.79783 5.67161 9.54102 4.48948 11.468 3.69455C13.3949 2.89961 15.4645 2.50882 17.5487 2.54637L17.5627 2.54662L17.5768 2.54662L62.1774 2.54662Z" fill="#FF6900" stroke="black" stroke-width="3.12587"/>
<path d="M22.6888 142.424C34.5074 135.879 40.3662 129.878 44.427 124.242C51.4502 127.481 59.0779 129.202 66.8117 129.292C79.6809 129.292 90.6309 123.373 96.3483 112.807C99.1158 111.064 101.459 108.724 103.207 105.959C104.954 103.195 106.062 100.074 106.45 96.8265C108.048 94.8372 109.168 92.5079 109.725 90.0177C110.282 87.5275 110.26 84.9428 109.662 82.4623C109.399 81.533 108.632 81.4926 107.318 82.3007C95.722 89.2505 84.5094 92.5637 73.8019 92.5637C66.9549 92.499 60.1522 91.4582 53.5991 89.4727C53.0361 83.49 52.1527 77.5418 50.9525 71.6538C50.1242 66.5627 51.296 62.7848 56.8921 62.7848C62.9612 62.9209 68.9508 64.1956 74.5494 66.5425C80.6103 69.2699 84.1458 74.6236 86.6711 74.6236C87.6813 74.6236 88.6914 73.9973 88.6914 71.8558C88.6914 67.5122 87.1358 60.5018 85.2165 57.9967C89.4127 57.6803 93.6269 57.6803 97.8231 57.9967C103.056 58.9058 103.298 61.5322 104.328 63.2494C104.844 64.0638 105.572 64.723 106.433 65.157C107.293 65.591 108.256 65.7836 109.217 65.7142C113.117 65.7142 115.541 63.6939 115.541 56.4613C115.541 40.5414 105.44 32.8037 94.9341 32.8037C86.2671 32.8037 82.9336 34.7028 74.7312 34.7028C68.8926 34.7028 64.0642 22.8438 57.4376 21.2679C54.5082 14.7626 47.9423 14.0151 43.9017 17.2274C40.2248 14.9849 34.4872 16.197 34.2448 20.3184C30.0224 19.0052 24.5676 21.2881 26.9111 26.8439C16.5875 27.147 14.648 36.2786 21.6584 37.2888C12.6277 42.4001 16.7491 51.2085 24.3252 49.4105C24.8505 55.6734 27.396 65.795 27.396 72.765C27.396 82.4825 22.9918 84.725 16.9713 84.725C11.3748 84.3512 5.84162 83.3206 0.48584 81.6542V88.4222C6.15512 89.9553 11.9738 90.8698 17.8401 91.1495C27.3354 91.1495 32.6083 85.5736 32.6083 74.9873C32.6083 61.9564 28.4466 50.1176 29.8001 42.6627L29.3961 42.2991C24.6484 47.2488 21.5776 45.9356 21.315 44.3194C20.6483 41.1273 26.1838 37.2282 29.3961 35.8544C29.3961 35.6524 29.5375 35.4301 29.6183 35.2079C26.6485 35.6726 23.1534 35.2079 23.0322 33.1876C22.8908 30.6623 27.9415 28.4197 34.5478 28.9854L34.9317 28.6622C34.4215 28.5311 33.9218 28.3623 33.4367 28.1571C31.7194 27.2884 31.4164 25.8136 31.881 24.763C32.3666 24.1794 32.9912 23.7274 33.6973 23.4484C34.4034 23.1695 35.1683 23.0728 35.9216 23.167C37.9411 23.2068 39.9352 23.6248 41.8006 24.3994L42.3057 24.1973C41.7878 23.8234 41.3427 23.3578 40.9925 22.8236C40.7444 22.477 40.6357 22.0498 40.6881 21.6269C40.7405 21.2039 40.9502 20.8161 41.2754 20.5406C42.1493 20.0714 43.155 19.908 44.1325 20.0764C45.11 20.2448 46.003 20.7354 46.6695 21.47C47.114 21.874 47.4776 22.2579 47.8211 22.6215L48.5282 22.5003C48.1942 22.0076 47.9481 21.4608 47.8009 20.8841C47.7048 20.5253 47.7496 20.1433 47.9262 19.8165C48.1027 19.4897 48.3976 19.2428 48.7504 19.1264C49.2388 18.9974 49.7548 19.019 50.2308 19.1884C50.7067 19.3579 51.1202 19.6673 51.4172 20.076C51.9857 21.0002 52.421 22 52.7102 23.0458C48.0433 23.5913 35.6388 26.4197 35.6388 41.4102C35.6388 56.0168 47.7605 71.371 47.7605 93.9375C47.8729 103.468 44.5771 112.725 38.4672 120.04C32.7094 127.454 23.5575 134.626 9.29427 140.505C11.8601 141.734 14.672 142.362 17.5168 142.344H22.6685L22.6888 142.424ZM79.782 50.5216C80.705 46.8919 82.4079 43.5068 84.7721 40.602C87.2166 38.0161 89.9238 37.208 95.8634 37.208C104.086 37.208 110.955 45.5113 110.955 57.128C110.955 58.8452 108.632 58.8452 107.904 57.2694C105.116 52.3399 101.318 51.6328 95.3583 51.2085C90.9541 50.9459 85.6408 51.3297 80.8123 51.5318C79.9032 51.552 79.6405 50.9257 79.782 50.5216ZM53.6395 97.1094C61.1258 99.0495 68.8696 99.8062 76.5899 99.3519C86.7151 98.6502 96.5057 95.4352 105.076 89.998C101.742 98.4024 89.2773 103.615 77.1758 105.09C77.1758 105.696 77.0142 106.302 76.893 106.867C85.964 106.382 94.5906 103.433 98.4898 100.806C96.2473 109.069 85.1559 112.403 75.0747 112.928C74.7919 113.575 74.4888 114.181 74.1858 114.767C79.2022 114.843 84.2014 114.162 89.0146 112.746C85.964 118.363 75.5394 122.908 64.9531 122.908C58.9631 122.94 53.0368 121.679 47.5786 119.211C51.2658 112.406 53.3395 104.844 53.6395 97.1094Z" fill="black"/>
<path d="M0.506104 109.211C5.476 108.221 10.3651 107.312 10.3651 107.312L10.9914 104.625C8.74886 104.504 4.30424 104.625 0.506104 104.625V109.211Z" fill="black"/>
<path d="M54.0232 29.2679C55.7607 28.682 58.2456 30.3992 59.579 33.0862C60.9124 35.7732 60.5892 38.4198 58.8517 39.0056C57.1143 39.5915 54.6495 37.8945 53.3162 35.2075C53.1422 34.8549 52.9936 34.4903 52.8717 34.1166H53.1747C53.3698 34.3543 53.6381 34.5209 53.9377 34.5903C54.2374 34.6598 54.5516 34.6282 54.8314 34.5004C55.4374 34.0963 55.3768 33.0458 54.8314 32.1165C54.2859 31.1871 53.6192 30.5811 52.8111 30.6417L52.6899 30.4598C52.8005 30.202 52.9636 29.9701 53.1688 29.7788C53.3741 29.5874 53.6169 29.441 53.8818 29.3487M66.0035 56.3397C58.2254 54.6426 49.7402 52.2991 45.1946 45.713C45.1522 45.6536 45.0929 45.6084 45.0245 45.5832C44.956 45.558 44.8815 45.5539 44.8108 45.5716C44.7391 45.5921 44.6756 45.634 44.6286 45.6919C44.5816 45.7497 44.5535 45.8205 44.5481 45.8948C44.5395 46.2822 44.5802 46.6692 44.6693 47.0464L44.0632 47.2686C43.453 46.5533 43.0963 45.6563 43.0488 44.7172C43.0013 43.7781 43.2656 42.8497 43.8006 42.0765C44.7541 41.1604 45.9946 40.6017 47.3125 40.495C48.6304 40.3882 49.9448 40.7399 51.0332 41.4906L50.7706 42.0563C49.7672 41.8045 48.707 41.9192 47.7806 42.3795C47.0735 42.8038 46.9927 43.4301 47.4169 44.2382C51.1746 51.2284 62.1246 52.7638 75.1352 51.7536C76.4686 51.7536 76.7918 51.0465 76.9535 50.4C77.9459 46.0449 80.0956 42.0384 83.1759 38.8036C80.8122 39.1269 78.5899 39.2077 76.6706 39.3087C69.9431 39.7329 66.1045 38.844 64.9126 37.8945L65.1348 37.3086C65.8419 37.551 66.5894 37.6116 66.751 37.3086C66.9127 37.0056 66.751 36.8439 66.4682 36.5611C65.1954 35.3691 59.4578 29.4901 59.478 29.5305C58.8517 24.5606 51.6191 24.3788 48.7301 29.2679L47.7402 29.0052C47.9792 28.0925 48.3537 27.2209 48.8513 26.4193C46.1189 27.1436 43.6791 28.6992 41.8694 30.8708C40.0597 33.0424 38.9696 35.7227 38.7499 38.541C36.0629 61.0469 70.2259 55.8548 79.9839 64.8047C80.1657 64.9461 80.6304 65.6128 80.9738 65.1885C81.3779 63.9763 77.0747 58.7236 66.0035 56.2791" fill="white"/>
<path d="M104.995 89.9771C96.4287 95.4229 86.6359 98.6385 76.5089 99.331C68.8155 99.7768 61.0996 99.0202 53.6393 97.0885C53.5353 99.3219 53.306 101.548 52.9524 103.755C59.3741 105.293 65.9466 106.112 72.5491 106.2C71.1825 112.617 67.8409 118.446 62.9932 122.867C74.9735 123.372 85.8426 118.705 89.0346 112.624C84.2211 114.038 79.2221 114.719 74.2058 114.645C74.5088 114.059 74.8119 113.453 75.0947 112.806C85.1961 112.321 96.2673 109.008 98.5098 100.685C94.6106 103.372 85.984 106.321 76.913 106.745C77.014 106.16 77.115 105.574 77.1958 104.968C89.1761 103.614 101.661 98.3814 104.995 89.9771Z" fill="white"/>
</svg>
